<svg xmlns="http://www.w3.org/2000/svg" version="1" viewBox="-132 42 576 512"><path fill="#fff" d="M253 210l19 1C255 133 171 74 76 74c-107 0-195 73-195 166 0 53 29 97 78 131l-19 59 68-34c24 5 43 9 68 9h18c-4-13-6-27-6-41 0-85 73-154 165-154zm-104-53c14 0 24 10 24 24 0 15-10 25-24 25-15 0-30-10-30-25 1-14 15-24 30-24zM12 206c-14 0-29-10-29-25 0-14 15-24 29-24 15 0 25 10 25 24 0 15-10 25-25 25zm419 156c0-78-78-142-165-142-93 0-166 64-166 142s73 141 166 141c19 0 39-5 58-10l54 29-15-48c39-30 68-68 68-112zm-219-25c-10 0-19-10-19-19 0-10 9-20 19-20 15 0 24 10 24 20s-9 19-24 19zm107 0c-10 0-19-10-19-19 0-10 9-20 19-20 15 0 24 10 24 20 1 10-9 19-24 19z"/></svg>